<svg width="38" height="929" viewBox="0 0 38 929" fill="none" xmlns="http://www.w3.org/2000/svg">
<ellipse cx="2.10179" cy="58.2261" rx="2.10179" ry="2.18897" fill="#C4C4C4"/>
<ellipse cx="2.10179" cy="184.312" rx="2.10179" ry="2.18897" fill="#C4C4C4"/>
<ellipse cx="2.10179" cy="86.2456" rx="2.10179" ry="2.18897" fill="#C4C4C4"/>
<ellipse cx="2.10179" cy="72.2378" rx="2.10179" ry="2.18897" fill="#C4C4C4"/>
<ellipse cx="2.10179" cy="198.32" rx="2.10179" ry="2.18897" fill="#C4C4C4"/>
<ellipse cx="2.10179" cy="100.255" rx="2.10179" ry="2.18897" fill="#C4C4C4"/>
<ellipse cx="2.10179" cy="114.263" rx="2.10179" ry="2.18897" fill="#C4C4C4"/>
<ellipse cx="2.10179" cy="2.18897" rx="2.10179" ry="2.18897" fill="#C4C4C4"/>
<ellipse cx="2.10179" cy="128.273" rx="2.10179" ry="2.18897" fill="#C4C4C4"/>
<ellipse cx="2.10179" cy="16.1968" rx="2.10179" ry="2.18897" fill="#C4C4C4"/>
<ellipse cx="2.10179" cy="142.283" rx="2.10179" ry="2.18897" fill="#C4C4C4"/>
<ellipse cx="2.10179" cy="30.2085" rx="2.10179" ry="2.18897" fill="#C4C4C4"/>
<ellipse cx="2.10179" cy="156.292" rx="2.10179" ry="2.18897" fill="#C4C4C4"/>
<ellipse cx="2.10179" cy="44.2163" rx="2.10179" ry="2.18897" fill="#C4C4C4"/>
<ellipse cx="2.10179" cy="170.302" rx="2.10179" ry="2.18897" fill="#C4C4C4"/>
<ellipse cx="18.9162" cy="58.2261" rx="2.10179" ry="2.18897" fill="#C4C4C4"/>
<ellipse cx="18.9162" cy="184.312" rx="2.10179" ry="2.18897" fill="#C4C4C4"/>
<ellipse cx="18.9162" cy="86.2456" rx="2.10179" ry="2.18897" fill="#C4C4C4"/>
<ellipse cx="18.9162" cy="72.2378" rx="2.10179" ry="2.18897" fill="#C4C4C4"/>
<ellipse cx="18.9162" cy="198.32" rx="2.10179" ry="2.18897" fill="#C4C4C4"/>
<ellipse cx="18.9162" cy="100.255" rx="2.10179" ry="2.18897" fill="#C4C4C4"/>
<ellipse cx="18.9162" cy="114.263" rx="2.10179" ry="2.18897" fill="#C4C4C4"/>
<ellipse cx="18.9162" cy="2.18897" rx="2.10179" ry="2.18897" fill="#487F9E"/>
<ellipse cx="18.9162" cy="128.273" rx="2.10179" ry="2.18897" fill="#487F9E"/>
<ellipse cx="18.9162" cy="16.1968" rx="2.10179" ry="2.18897" fill="#C4C4C4"/>
<ellipse cx="18.9162" cy="142.283" rx="2.10179" ry="2.18897" fill="#C4C4C4"/>
<ellipse cx="18.9162" cy="30.2085" rx="2.10179" ry="2.18897" fill="#C4C4C4"/>
<ellipse cx="18.9162" cy="156.292" rx="2.10179" ry="2.18897" fill="#C4C4C4"/>
<ellipse cx="18.9162" cy="44.2163" rx="2.10179" ry="2.18897" fill="#C4C4C4"/>
<ellipse cx="18.9162" cy="170.302" rx="2.10179" ry="2.18897" fill="#C4C4C4"/>
<ellipse cx="35.7307" cy="58.2261" rx="2.10179" ry="2.18897" fill="#C4C4C4"/>
<ellipse cx="35.7307" cy="184.312" rx="2.10179" ry="2.18897" fill="#C4C4C4"/>
<ellipse cx="35.7307" cy="86.2456" rx="2.10179" ry="2.18897" fill="#C4C4C4"/>
<ellipse cx="35.7307" cy="72.2378" rx="2.10179" ry="2.18897" fill="#487F9E"/>
<ellipse cx="35.7307" cy="198.32" rx="2.10179" ry="2.18897" fill="#487F9E"/>
<ellipse cx="35.7307" cy="100.255" rx="2.10179" ry="2.18897" fill="#C4C4C4"/>
<ellipse cx="35.7307" cy="114.263" rx="2.10179" ry="2.18897" fill="#C4C4C4"/>
<ellipse cx="35.7307" cy="2.18897" rx="2.10179" ry="2.18897" fill="#C4C4C4"/>
<ellipse cx="35.7307" cy="128.273" rx="2.10179" ry="2.18897" fill="#C4C4C4"/>
<ellipse cx="35.7307" cy="16.1968" rx="2.10179" ry="2.18897" fill="#C4C4C4"/>
<ellipse cx="35.7307" cy="142.283" rx="2.10179" ry="2.18897" fill="#C4C4C4"/>
<ellipse cx="35.7307" cy="30.2085" rx="2.10179" ry="2.18897" fill="#C4C4C4"/>
<ellipse cx="35.7307" cy="156.292" rx="2.10179" ry="2.18897" fill="#C4C4C4"/>
<ellipse cx="35.7307" cy="44.2163" rx="2.10179" ry="2.18897" fill="#C4C4C4"/>
<ellipse cx="35.7307" cy="170.302" rx="2.10179" ry="2.18897" fill="#C4C4C4"/>
<ellipse cx="2.10179" cy="282.376" rx="2.10179" ry="2.18897" fill="#C4C4C4"/>
<ellipse cx="2.10179" cy="184.312" rx="2.10179" ry="2.18897" fill="#C4C4C4"/>
<ellipse cx="2.10179" cy="296.386" rx="2.10179" ry="2.18897" fill="#C4C4C4"/>
<ellipse cx="2.10179" cy="198.32" rx="2.10179" ry="2.18897" fill="#C4C4C4"/>
<ellipse cx="2.10179" cy="212.33" rx="2.10179" ry="2.18897" fill="#C4C4C4"/>
<ellipse cx="2.10179" cy="226.339" rx="2.10179" ry="2.18897" fill="#C4C4C4"/>
<ellipse cx="2.10179" cy="240.349" rx="2.10179" ry="2.18897" fill="#C4C4C4"/>
<ellipse cx="2.10179" cy="254.361" rx="2.10179" ry="2.18897" fill="#C4C4C4"/>
<ellipse cx="2.10179" cy="268.369" rx="2.10179" ry="2.18897" fill="#C4C4C4"/>
<ellipse cx="18.9162" cy="282.376" rx="2.10179" ry="2.18897" fill="#C4C4C4"/>
<ellipse cx="18.9162" cy="184.312" rx="2.10179" ry="2.18897" fill="#C4C4C4"/>
<ellipse cx="18.9162" cy="296.386" rx="2.10179" ry="2.18897" fill="#C4C4C4"/>
<ellipse cx="18.9162" cy="198.32" rx="2.10179" ry="2.18897" fill="#C4C4C4"/>
<ellipse cx="18.9162" cy="212.33" rx="2.10179" ry="2.18897" fill="#C4C4C4"/>
<ellipse cx="18.9162" cy="226.339" rx="2.10179" ry="2.18897" fill="#487F9E"/>
<ellipse cx="18.9162" cy="240.349" rx="2.10179" ry="2.18897" fill="#C4C4C4"/>
<ellipse cx="18.9162" cy="254.361" rx="2.10179" ry="2.18897" fill="#C4C4C4"/>
<ellipse cx="18.9162" cy="268.369" rx="2.10179" ry="2.18897" fill="#C4C4C4"/>
<ellipse cx="35.7307" cy="282.376" rx="2.10179" ry="2.18897" fill="#C4C4C4"/>
<ellipse cx="35.7307" cy="184.312" rx="2.10179" ry="2.18897" fill="#C4C4C4"/>
<ellipse cx="35.7307" cy="296.386" rx="2.10179" ry="2.18897" fill="#487F9E"/>
<ellipse cx="35.7307" cy="198.32" rx="2.10179" ry="2.18897" fill="#C4C4C4"/>
<ellipse cx="35.7307" cy="212.33" rx="2.10179" ry="2.18897" fill="#C4C4C4"/>
<ellipse cx="35.7307" cy="226.339" rx="2.10179" ry="2.18897" fill="#C4C4C4"/>
<ellipse cx="35.7307" cy="240.349" rx="2.10179" ry="2.18897" fill="#C4C4C4"/>
<ellipse cx="35.7307" cy="254.361" rx="2.10179" ry="2.18897" fill="#C4C4C4"/>
<ellipse cx="35.7307" cy="268.369" rx="2.10179" ry="2.18897" fill="#C4C4C4"/>
<ellipse cx="2.10179" cy="366.435" rx="2.10179" ry="2.18897" fill="#C4C4C4"/>
<ellipse cx="2.10179" cy="268.369" rx="2.10179" ry="2.18897" fill="#C4C4C4"/>
<ellipse cx="2.10179" cy="380.443" rx="2.10179" ry="2.18897" fill="#C4C4C4"/>
<ellipse cx="2.10179" cy="282.376" rx="2.10179" ry="2.18897" fill="#C4C4C4"/>
<ellipse cx="2.10179" cy="296.386" rx="2.10179" ry="2.18897" fill="#C4C4C4"/>
<ellipse cx="2.10179" cy="310.396" rx="2.10179" ry="2.18897" fill="#C4C4C4"/>
<ellipse cx="2.10179" cy="324.404" rx="2.10179" ry="2.18897" fill="#C4C4C4"/>
<ellipse cx="2.10179" cy="338.416" rx="2.10179" ry="2.18897" fill="#C4C4C4"/>
<ellipse cx="2.10179" cy="352.425" rx="2.10179" ry="2.18897" fill="#C4C4C4"/>
<ellipse cx="18.9162" cy="366.435" rx="2.10179" ry="2.18897" fill="#C4C4C4"/>
<ellipse cx="18.9162" cy="268.369" rx="2.10179" ry="2.18897" fill="#C4C4C4"/>
<ellipse cx="18.9162" cy="380.443" rx="2.10179" ry="2.18897" fill="#C4C4C4"/>
<ellipse cx="18.9162" cy="282.376" rx="2.10179" ry="2.18897" fill="#C4C4C4"/>
<ellipse cx="18.9162" cy="296.386" rx="2.10179" ry="2.18897" fill="#C4C4C4"/>
<ellipse cx="18.9162" cy="310.396" rx="2.10179" ry="2.18897" fill="#487F9E"/>
<ellipse cx="18.9162" cy="324.404" rx="2.10179" ry="2.18897" fill="#C4C4C4"/>
<ellipse cx="18.9162" cy="338.416" rx="2.10179" ry="2.18897" fill="#C4C4C4"/>
<ellipse cx="18.9162" cy="352.425" rx="2.10179" ry="2.18897" fill="#C4C4C4"/>
<ellipse cx="35.7307" cy="366.435" rx="2.10179" ry="2.18897" fill="#C4C4C4"/>
<ellipse cx="35.7307" cy="268.369" rx="2.10179" ry="2.18897" fill="#C4C4C4"/>
<ellipse cx="35.7307" cy="380.443" rx="2.10179" ry="2.18897" fill="#487F9E"/>
<ellipse cx="35.7307" cy="282.376" rx="2.10179" ry="2.18897" fill="#C4C4C4"/>
<ellipse cx="35.7307" cy="296.386" rx="2.10179" ry="2.18897" fill="#C4C4C4"/>
<ellipse cx="35.7307" cy="310.396" rx="2.10179" ry="2.18897" fill="#C4C4C4"/>
<ellipse cx="35.7307" cy="324.404" rx="2.10179" ry="2.18897" fill="#C4C4C4"/>
<ellipse cx="35.7307" cy="338.416" rx="2.10179" ry="2.18897" fill="#C4C4C4"/>
<ellipse cx="35.7307" cy="352.425" rx="2.10179" ry="2.18897" fill="#C4C4C4"/>
<ellipse cx="2.10179" cy="436.482" rx="2.10179" ry="2.18897" fill="#C4C4C4"/>
<ellipse cx="2.10179" cy="338.416" rx="2.10179" ry="2.18897" fill="#C4C4C4"/>
<ellipse cx="2.10179" cy="450.492" rx="2.10179" ry="2.18897" fill="#C4C4C4"/>
<ellipse cx="2.10179" cy="352.425" rx="2.10179" ry="2.18897" fill="#C4C4C4"/>
<ellipse cx="2.10179" cy="366.435" rx="2.10179" ry="2.18897" fill="#C4C4C4"/>
<ellipse cx="2.10179" cy="380.443" rx="2.10179" ry="2.18897" fill="#C4C4C4"/>
<ellipse cx="2.10179" cy="394.453" rx="2.10179" ry="2.18897" fill="#C4C4C4"/>
<ellipse cx="2.10179" cy="408.462" rx="2.10179" ry="2.18897" fill="#C4C4C4"/>
<ellipse cx="2.10179" cy="422.47" rx="2.10179" ry="2.18897" fill="#C4C4C4"/>
<ellipse cx="18.9162" cy="436.482" rx="2.10179" ry="2.18897" fill="#C4C4C4"/>
<ellipse cx="18.9162" cy="338.416" rx="2.10179" ry="2.18897" fill="#C4C4C4"/>
<ellipse cx="18.9162" cy="450.492" rx="2.10179" ry="2.18897" fill="#C4C4C4"/>
<ellipse cx="18.9162" cy="352.425" rx="2.10179" ry="2.18897" fill="#C4C4C4"/>
<ellipse cx="18.9162" cy="366.435" rx="2.10179" ry="2.18897" fill="#C4C4C4"/>
<ellipse cx="18.9162" cy="380.443" rx="2.10179" ry="2.18897" fill="#487F9E"/>
<ellipse cx="18.9162" cy="394.453" rx="2.10179" ry="2.18897" fill="#C4C4C4"/>
<ellipse cx="18.9162" cy="408.462" rx="2.10179" ry="2.18897" fill="#C4C4C4"/>
<ellipse cx="18.9162" cy="422.47" rx="2.10179" ry="2.18897" fill="#C4C4C4"/>
<ellipse cx="35.7307" cy="436.482" rx="2.10179" ry="2.18897" fill="#C4C4C4"/>
<ellipse cx="35.7307" cy="338.416" rx="2.10179" ry="2.18897" fill="#C4C4C4"/>
<ellipse cx="35.7307" cy="450.492" rx="2.10179" ry="2.18897" fill="#487F9E"/>
<ellipse cx="35.7307" cy="352.425" rx="2.10179" ry="2.18897" fill="#C4C4C4"/>
<ellipse cx="35.7307" cy="366.435" rx="2.10179" ry="2.18897" fill="#C4C4C4"/>
<ellipse cx="35.7307" cy="380.443" rx="2.10179" ry="2.18897" fill="#C4C4C4"/>
<ellipse cx="35.7307" cy="394.453" rx="2.10179" ry="2.18897" fill="#C4C4C4"/>
<ellipse cx="35.7307" cy="408.462" rx="2.10179" ry="2.18897" fill="#C4C4C4"/>
<ellipse cx="35.7307" cy="422.47" rx="2.10179" ry="2.18897" fill="#C4C4C4"/>
<ellipse cx="2.10179" cy="520.537" rx="2.10179" ry="2.18897" fill="#C4C4C4"/>
<ellipse cx="2.10179" cy="422.47" rx="2.10179" ry="2.18897" fill="#C4C4C4"/>
<ellipse cx="2.10179" cy="534.548" rx="2.10179" ry="2.18897" fill="#C4C4C4"/>
<ellipse cx="2.10179" cy="436.482" rx="2.10179" ry="2.18897" fill="#C4C4C4"/>
<ellipse cx="2.10179" cy="450.492" rx="2.10179" ry="2.18897" fill="#C4C4C4"/>
<ellipse cx="2.10179" cy="464.5" rx="2.10179" ry="2.18897" fill="#C4C4C4"/>
<ellipse cx="2.10179" cy="478.507" rx="2.10179" ry="2.18897" fill="#C4C4C4"/>
<ellipse cx="2.10179" cy="492.519" rx="2.10179" ry="2.18897" fill="#C4C4C4"/>
<ellipse cx="2.10179" cy="506.527" rx="2.10179" ry="2.18897" fill="#C4C4C4"/>
<ellipse cx="18.9162" cy="520.537" rx="2.10179" ry="2.18897" fill="#C4C4C4"/>
<ellipse cx="18.9162" cy="422.47" rx="2.10179" ry="2.18897" fill="#C4C4C4"/>
<ellipse cx="18.9162" cy="534.548" rx="2.10179" ry="2.18897" fill="#C4C4C4"/>
<ellipse cx="18.9162" cy="436.482" rx="2.10179" ry="2.18897" fill="#C4C4C4"/>
<ellipse cx="18.9162" cy="450.492" rx="2.10179" ry="2.18897" fill="#C4C4C4"/>
<ellipse cx="18.9162" cy="464.5" rx="2.10179" ry="2.18897" fill="#487F9E"/>
<ellipse cx="18.9162" cy="478.507" rx="2.10179" ry="2.18897" fill="#C4C4C4"/>
<ellipse cx="18.9162" cy="492.519" rx="2.10179" ry="2.18897" fill="#C4C4C4"/>
<ellipse cx="18.9162" cy="506.527" rx="2.10179" ry="2.18897" fill="#C4C4C4"/>
<ellipse cx="35.7307" cy="520.537" rx="2.10179" ry="2.18897" fill="#C4C4C4"/>
<ellipse cx="35.7307" cy="422.47" rx="2.10179" ry="2.18897" fill="#C4C4C4"/>
<ellipse cx="35.7307" cy="534.548" rx="2.10179" ry="2.18897" fill="#487F9E"/>
<ellipse cx="35.7307" cy="436.482" rx="2.10179" ry="2.18897" fill="#C4C4C4"/>
<ellipse cx="35.7307" cy="450.492" rx="2.10179" ry="2.18897" fill="#C4C4C4"/>
<ellipse cx="35.7307" cy="464.5" rx="2.10179" ry="2.18897" fill="#C4C4C4"/>
<ellipse cx="35.7307" cy="478.507" rx="2.10179" ry="2.18897" fill="#C4C4C4"/>
<ellipse cx="35.7307" cy="492.519" rx="2.10179" ry="2.18897" fill="#C4C4C4"/>
<ellipse cx="35.7307" cy="506.527" rx="2.10179" ry="2.18897" fill="#C4C4C4"/>
<ellipse cx="2.10179" cy="646.623" rx="2.10179" ry="2.18897" fill="#C4C4C4"/>
<ellipse cx="2.10179" cy="548.556" rx="2.10179" ry="2.18897" fill="#C4C4C4"/>
<ellipse cx="2.10179" cy="660.632" rx="2.10179" ry="2.18897" fill="#C4C4C4"/>
<ellipse cx="2.10179" cy="562.566" rx="2.10179" ry="2.18897" fill="#C4C4C4"/>
<ellipse cx="2.10179" cy="576.576" rx="2.10179" ry="2.18897" fill="#C4C4C4"/>
<ellipse cx="2.10179" cy="590.583" rx="2.10179" ry="2.18897" fill="#C4C4C4"/>
<ellipse cx="2.10179" cy="604.593" rx="2.10179" ry="2.18897" fill="#C4C4C4"/>
<ellipse cx="2.10179" cy="618.603" rx="2.10179" ry="2.18897" fill="#C4C4C4"/>
<ellipse cx="2.10179" cy="632.613" rx="2.10179" ry="2.18897" fill="#C4C4C4"/>
<ellipse cx="18.9162" cy="646.623" rx="2.10179" ry="2.18897" fill="#C4C4C4"/>
<ellipse cx="18.9162" cy="548.556" rx="2.10179" ry="2.18897" fill="#C4C4C4"/>
<ellipse cx="18.9162" cy="660.632" rx="2.10179" ry="2.18897" fill="#C4C4C4"/>
<ellipse cx="18.9162" cy="562.566" rx="2.10179" ry="2.18897" fill="#C4C4C4"/>
<ellipse cx="18.9162" cy="576.576" rx="2.10179" ry="2.18897" fill="#C4C4C4"/>
<ellipse cx="18.9162" cy="590.583" rx="2.10179" ry="2.18897" fill="#487F9E"/>
<ellipse cx="18.9162" cy="604.593" rx="2.10179" ry="2.18897" fill="#C4C4C4"/>
<ellipse cx="18.9162" cy="618.603" rx="2.10179" ry="2.18897" fill="#C4C4C4"/>
<ellipse cx="18.9162" cy="632.613" rx="2.10179" ry="2.18897" fill="#C4C4C4"/>
<ellipse cx="35.7307" cy="646.623" rx="2.10179" ry="2.18897" fill="#C4C4C4"/>
<ellipse cx="35.7307" cy="548.556" rx="2.10179" ry="2.18897" fill="#C4C4C4"/>
<ellipse cx="35.7307" cy="660.632" rx="2.10179" ry="2.18897" fill="#487F9E"/>
<ellipse cx="35.7307" cy="562.566" rx="2.10179" ry="2.18897" fill="#C4C4C4"/>
<ellipse cx="35.7307" cy="576.576" rx="2.10179" ry="2.18897" fill="#C4C4C4"/>
<ellipse cx="35.7307" cy="590.583" rx="2.10179" ry="2.18897" fill="#C4C4C4"/>
<ellipse cx="35.7307" cy="604.593" rx="2.10179" ry="2.18897" fill="#C4C4C4"/>
<ellipse cx="35.7307" cy="618.603" rx="2.10179" ry="2.18897" fill="#C4C4C4"/>
<ellipse cx="35.7307" cy="632.613" rx="2.10179" ry="2.18897" fill="#C4C4C4"/>
<ellipse cx="2.10179" cy="730.679" rx="2.10179" ry="2.18897" fill="#C4C4C4"/>
<ellipse cx="2.10179" cy="632.613" rx="2.10179" ry="2.18897" fill="#C4C4C4"/>
<ellipse cx="2.10179" cy="744.687" rx="2.10179" ry="2.18897" fill="#C4C4C4"/>
<ellipse cx="2.10179" cy="646.623" rx="2.10179" ry="2.18897" fill="#C4C4C4"/>
<ellipse cx="2.10179" cy="660.632" rx="2.10179" ry="2.18897" fill="#C4C4C4"/>
<ellipse cx="2.10179" cy="674.642" rx="2.10179" ry="2.18897" fill="#C4C4C4"/>
<ellipse cx="2.10179" cy="688.65" rx="2.10179" ry="2.18897" fill="#C4C4C4"/>
<ellipse cx="2.10179" cy="702.658" rx="2.10179" ry="2.18897" fill="#C4C4C4"/>
<ellipse cx="2.10179" cy="716.671" rx="2.10179" ry="2.18897" fill="#C4C4C4"/>
<ellipse cx="18.9162" cy="730.679" rx="2.10179" ry="2.18897" fill="#C4C4C4"/>
<ellipse cx="18.9162" cy="632.613" rx="2.10179" ry="2.18897" fill="#C4C4C4"/>
<ellipse cx="18.9162" cy="744.687" rx="2.10179" ry="2.18897" fill="#C4C4C4"/>
<ellipse cx="18.9162" cy="646.623" rx="2.10179" ry="2.18897" fill="#C4C4C4"/>
<ellipse cx="18.9162" cy="660.632" rx="2.10179" ry="2.18897" fill="#C4C4C4"/>
<ellipse cx="18.9162" cy="674.642" rx="2.10179" ry="2.18897" fill="#487F9E"/>
<ellipse cx="18.9162" cy="688.65" rx="2.10179" ry="2.18897" fill="#C4C4C4"/>
<ellipse cx="18.9162" cy="702.658" rx="2.10179" ry="2.18897" fill="#C4C4C4"/>
<ellipse cx="18.9162" cy="716.671" rx="2.10179" ry="2.18897" fill="#C4C4C4"/>
<ellipse cx="35.7307" cy="730.679" rx="2.10179" ry="2.18897" fill="#C4C4C4"/>
<ellipse cx="35.7307" cy="632.613" rx="2.10179" ry="2.18897" fill="#C4C4C4"/>
<ellipse cx="35.7307" cy="744.687" rx="2.10179" ry="2.18897" fill="#487F9E"/>
<ellipse cx="35.7307" cy="646.623" rx="2.10179" ry="2.18897" fill="#C4C4C4"/>
<ellipse cx="35.7307" cy="660.632" rx="2.10179" ry="2.18897" fill="#C4C4C4"/>
<ellipse cx="35.7307" cy="674.642" rx="2.10179" ry="2.18897" fill="#C4C4C4"/>
<ellipse cx="35.7307" cy="688.65" rx="2.10179" ry="2.18897" fill="#C4C4C4"/>
<ellipse cx="35.7307" cy="702.658" rx="2.10179" ry="2.18897" fill="#C4C4C4"/>
<ellipse cx="35.7307" cy="716.671" rx="2.10179" ry="2.18897" fill="#C4C4C4"/>
<ellipse cx="2.10179" cy="786.716" rx="2.10179" ry="2.18897" fill="#C4C4C4"/>
<ellipse cx="2.10179" cy="688.65" rx="2.10179" ry="2.18897" fill="#C4C4C4"/>
<ellipse cx="2.10179" cy="800.726" rx="2.10179" ry="2.18897" fill="#C4C4C4"/>
<ellipse cx="2.10179" cy="702.658" rx="2.10179" ry="2.18897" fill="#C4C4C4"/>
<ellipse cx="2.10179" cy="716.671" rx="2.10179" ry="2.18897" fill="#C4C4C4"/>
<ellipse cx="2.10179" cy="730.679" rx="2.10179" ry="2.18897" fill="#C4C4C4"/>
<ellipse cx="2.10179" cy="744.687" rx="2.10179" ry="2.18897" fill="#C4C4C4"/>
<ellipse cx="2.10179" cy="758.699" rx="2.10179" ry="2.18897" fill="#C4C4C4"/>
<ellipse cx="2.10179" cy="772.707" rx="2.10179" ry="2.18897" fill="#C4C4C4"/>
<ellipse cx="18.9162" cy="786.716" rx="2.10179" ry="2.18897" fill="#C4C4C4"/>
<ellipse cx="18.9162" cy="688.65" rx="2.10179" ry="2.18897" fill="#C4C4C4"/>
<ellipse cx="18.9162" cy="800.726" rx="2.10179" ry="2.18897" fill="#C4C4C4"/>
<ellipse cx="18.9162" cy="702.658" rx="2.10179" ry="2.18897" fill="#C4C4C4"/>
<ellipse cx="18.9162" cy="716.671" rx="2.10179" ry="2.18897" fill="#C4C4C4"/>
<ellipse cx="18.9162" cy="730.679" rx="2.10179" ry="2.18897" fill="#487F9E"/>
<ellipse cx="18.9162" cy="744.687" rx="2.10179" ry="2.18897" fill="#C4C4C4"/>
<ellipse cx="18.9162" cy="758.699" rx="2.10179" ry="2.18897" fill="#C4C4C4"/>
<ellipse cx="18.9162" cy="772.707" rx="2.10179" ry="2.18897" fill="#C4C4C4"/>
<ellipse cx="35.7307" cy="786.716" rx="2.10179" ry="2.18897" fill="#C4C4C4"/>
<ellipse cx="35.7307" cy="688.65" rx="2.10179" ry="2.18897" fill="#C4C4C4"/>
<ellipse cx="35.7307" cy="800.726" rx="2.10179" ry="2.18897" fill="#487F9E"/>
<ellipse cx="35.7307" cy="702.658" rx="2.10179" ry="2.18897" fill="#C4C4C4"/>
<ellipse cx="35.7307" cy="716.671" rx="2.10179" ry="2.18897" fill="#C4C4C4"/>
<ellipse cx="35.7307" cy="730.679" rx="2.10179" ry="2.18897" fill="#C4C4C4"/>
<ellipse cx="35.7307" cy="744.687" rx="2.10179" ry="2.18897" fill="#C4C4C4"/>
<ellipse cx="35.7307" cy="758.699" rx="2.10179" ry="2.18897" fill="#C4C4C4"/>
<ellipse cx="35.7307" cy="772.707" rx="2.10179" ry="2.18897" fill="#C4C4C4"/>
<ellipse cx="2.10179" cy="912.802" rx="2.10179" ry="2.18897" fill="#C4C4C4"/>
<ellipse cx="2.10179" cy="814.736" rx="2.10179" ry="2.18897" fill="#C4C4C4"/>
<ellipse cx="2.10179" cy="926.81" rx="2.10179" ry="2.18897" fill="#C4C4C4"/>
<ellipse cx="2.10179" cy="828.746" rx="2.10179" ry="2.18897" fill="#C4C4C4"/>
<ellipse cx="2.10179" cy="842.755" rx="2.10179" ry="2.18897" fill="#C4C4C4"/>
<ellipse cx="2.10179" cy="856.763" rx="2.10179" ry="2.18897" fill="#C4C4C4"/>
<ellipse cx="2.10179" cy="870.773" rx="2.10179" ry="2.18897" fill="#C4C4C4"/>
<ellipse cx="2.10179" cy="884.781" rx="2.10179" ry="2.18897" fill="#C4C4C4"/>
<ellipse cx="2.10179" cy="898.791" rx="2.10179" ry="2.18897" fill="#C4C4C4"/>
<ellipse cx="18.9162" cy="912.802" rx="2.10179" ry="2.18897" fill="#C4C4C4"/>
<ellipse cx="18.9162" cy="814.736" rx="2.10179" ry="2.18897" fill="#C4C4C4"/>
<ellipse cx="18.9162" cy="926.81" rx="2.10179" ry="2.18897" fill="#C4C4C4"/>
<ellipse cx="18.9162" cy="828.746" rx="2.10179" ry="2.18897" fill="#C4C4C4"/>
<ellipse cx="18.9162" cy="842.755" rx="2.10179" ry="2.18897" fill="#C4C4C4"/>
<ellipse cx="18.9162" cy="856.763" rx="2.10179" ry="2.18897" fill="#487F9E"/>
<ellipse cx="18.9162" cy="870.773" rx="2.10179" ry="2.18897" fill="#C4C4C4"/>
<ellipse cx="18.9162" cy="884.781" rx="2.10179" ry="2.18897" fill="#C4C4C4"/>
<ellipse cx="18.9162" cy="898.791" rx="2.10179" ry="2.18897" fill="#C4C4C4"/>
<ellipse cx="35.7307" cy="912.802" rx="2.10179" ry="2.18897" fill="#C4C4C4"/>
<ellipse cx="35.7307" cy="814.736" rx="2.10179" ry="2.18897" fill="#C4C4C4"/>
<ellipse cx="35.7307" cy="926.81" rx="2.10179" ry="2.18897" fill="#487F9E"/>
<ellipse cx="35.7307" cy="828.746" rx="2.10179" ry="2.18897" fill="#C4C4C4"/>
<ellipse cx="35.7307" cy="842.755" rx="2.10179" ry="2.18897" fill="#C4C4C4"/>
<ellipse cx="35.7307" cy="856.763" rx="2.10179" ry="2.18897" fill="#C4C4C4"/>
<ellipse cx="35.7307" cy="870.773" rx="2.10179" ry="2.18897" fill="#C4C4C4"/>
<ellipse cx="35.7307" cy="884.781" rx="2.10179" ry="2.18897" fill="#C4C4C4"/>
<ellipse cx="35.7307" cy="898.791" rx="2.10179" ry="2.18897" fill="#C4C4C4"/>
</svg>
