<svg width="77" height="76" viewBox="0 0 77 76" fill="none" xmlns="http://www.w3.org/2000/svg">
<path d="M38.9446 16.0195C20.4389 33.4204 23.4772 41.9827 23.4772 41.9827L34.2491 52.2023C34.2491 52.2023 53.031 51.9256 63.803 35.3538C74.575 18.782 74.575 2.76169 74.575 2.76169C74.575 2.76169 57.4503 -1.38138 38.9446 16.0195Z" stroke="#463B8A" stroke-width="3"/>
<path d="M22.0962 19.8863C26.7917 14.3622 34.5254 19.8863 34.5254 19.8863L24.582 33.1441H22.0962C18.7817 33.1441 14.6387 35.3537 14.6387 35.3537C14.6387 35.3537 17.4007 25.4104 22.0962 19.8863Z" stroke="#463B8A" stroke-width="3"/>
<path d="M54.3594 55.2409C50.877 61.5999 38.006 64.3321 38.006 64.3321L43.4152 50.2191L45.8497 49.7168C49.0958 49.0471 54.3571 45.1653 54.3571 45.1653C54.3571 45.1653 57.8418 48.882 54.3594 55.2409Z" stroke="#463B8A" stroke-width="3"/>
<circle cx="53.5834" cy="23.2011" r="5.68131" stroke="#463B8A" stroke-width="3"/>
<path d="M16.5725 49.1644C19.6107 43.3641 23.7538 43.0879 23.7538 43.0879L31.4875 50.8216C31.4875 50.8216 29.2779 56.0695 25.411 58.0029C21.5442 59.9364 14.0866 59.9364 14.0866 59.9364C14.0866 59.9364 13.5342 54.9647 16.5725 49.1644Z" stroke="#463B8A" stroke-width="3"/>
<line x1="25.8688" y1="33.1408" x2="44.6507" y2="50.2655" stroke="#463B8A" stroke-width="3"/>
<circle cx="39.7732" cy="37.0115" r="1.65723" fill="#463B8A"/>
<path d="M5.22865 58.902C4.78146 58.4311 4.80072 57.6868 5.27167 57.2396L11.1773 51.6318C11.6483 51.1847 12.3926 51.2039 12.8398 51.6749V51.6749C13.287 52.1458 13.2677 52.8901 12.7968 53.3373L6.89108 58.9451C6.42013 59.3922 5.67584 59.373 5.22865 58.902V58.902Z" fill="#463B8A"/>
<path d="M6.88588 48.4062C6.43869 47.9352 6.45795 47.1909 6.92889 46.7438L12.8346 41.136C13.3055 40.6888 14.0498 40.7081 14.497 41.179V41.179C14.9442 41.65 14.9249 42.3943 14.454 42.8414L8.5483 48.4492C8.07736 48.8964 7.33307 48.8771 6.88588 48.4062V48.4062Z" fill="#463B8A"/>
<path d="M5.22865 69.3979C4.78146 68.9269 4.80072 68.1826 5.27167 67.7355L11.1773 62.1277C11.6483 61.6805 12.3926 61.6998 12.8398 62.1707V62.1707C13.287 62.6417 13.2677 63.386 12.7968 63.8331L6.89108 69.4409C6.42013 69.8881 5.67584 69.8688 5.22865 69.3979V69.3979Z" fill="#463B8A"/>
<path d="M17.9342 69.3979C17.487 68.9269 17.5063 68.1826 17.9772 67.7355L23.8829 62.1277C24.3538 61.6805 25.0981 61.6998 25.5453 62.1707V62.1707C25.9925 62.6417 25.9733 63.386 25.5023 63.8331L19.5966 69.4409C19.1257 69.8881 18.3814 69.8688 17.9342 69.3979V69.3979Z" fill="#463B8A"/>
<path d="M27.8776 66.0834C27.4304 65.6125 27.4496 64.8682 27.9206 64.421L33.8263 58.8133C34.2972 58.3661 35.0415 58.3853 35.4887 58.8563V58.8563C35.9359 59.3272 35.9166 60.0715 35.4457 60.5187L29.54 66.1264C29.0691 66.5736 28.3248 66.5544 27.8776 66.0834V66.0834Z" fill="#463B8A"/>
<line x1="54.607" y1="4.97983" x2="71.1792" y2="20.4473" stroke="#463B8A" stroke-width="3"/>
</svg>
