<svg width="76" height="76" viewBox="0 0 76 76" fill="none" xmlns="http://www.w3.org/2000/svg">
<path d="M51.4546 37.9995C51.4546 30.5813 45.4185 24.5452 38.0003 24.5452C30.582 24.5452 24.5459 30.5813 24.5459 37.9995C24.5459 45.4178 30.582 51.4539 38.0003 51.4539C45.4185 51.4539 51.4546 45.4178 51.4546 37.9995ZM26.9921 37.9995C26.9921 31.9292 31.9299 26.9914 38.0003 26.9914C44.0706 26.9914 49.0084 31.9292 49.0084 37.9995C49.0084 44.0699 44.0706 49.0076 38.0003 49.0076C31.9299 49.0076 26.9921 44.0699 26.9921 37.9995Z" fill="#463B8A"/>
<path d="M46.561 37.9994C46.561 33.2793 42.7192 29.4375 37.9991 29.4375C33.2791 29.4375 29.4373 33.2793 29.4373 37.9994C29.4373 42.7194 33.2791 46.5612 37.9991 46.5612C42.7192 46.5612 46.561 42.7194 46.561 37.9994ZM31.8835 37.9994C31.8835 34.6272 34.627 31.8837 37.9991 31.8837C41.3713 31.8837 44.1147 34.6272 44.1147 37.9994C44.1147 41.3715 41.3713 44.115 37.9991 44.115C34.627 44.115 31.8835 41.3715 31.8835 37.9994Z" fill="#463B8A"/>
<path d="M41.6693 37.9992C41.6693 35.9762 40.023 34.3298 37.9999 34.3298C35.9769 34.3298 34.3306 35.9762 34.3306 37.9992C34.3306 40.0222 35.9769 41.6686 37.9999 41.6686C40.023 41.6686 41.6693 40.0222 41.6693 37.9992ZM36.7768 37.9992C36.7768 37.324 37.3248 36.7761 37.9999 36.7761C38.6751 36.7761 39.2231 37.324 39.2231 37.9992C39.2231 38.6744 38.6751 39.2223 37.9999 39.2223C37.3248 39.2223 36.7768 38.6744 36.7768 37.9992Z" fill="#463B8A"/>
<path d="M29.1299 54.0486C30.0619 54.566 31.0478 54.9941 32.0703 55.3439L32.0104 55.3904C36.1188 60.6963 41.8467 64.8366 47.7251 66.7507L48.4822 64.4244C46.2231 63.6893 40.8768 61.5072 35.9317 56.2221C36.6118 56.2991 37.3004 56.3469 38 56.3469C38.3951 56.3469 38.7816 56.3126 39.1693 56.2881L39.1265 56.3628C45.0342 59.7019 50.5969 60.8908 55.5237 60.8908C67.6228 60.8908 75.885 53.7196 76 53.6168L74.3769 51.7883C73.7959 52.302 60.5813 63.6807 43.0625 55.6203C44.1083 55.3194 45.1125 54.9231 46.0726 54.4498L46.0616 54.533C47.5147 54.7176 48.9849 54.8094 50.4502 54.8094C55.6937 54.8094 60.8969 53.645 65.2047 51.4556L64.0966 49.2747C61.9757 50.3523 56.6465 52.5894 49.4044 52.3472C50.2545 51.6696 51.0385 50.9162 51.7552 50.1004L51.7797 50.1884C74.3769 43.9114 75.9009 22.3893 75.9119 22.1728L73.4706 22.0297C73.4596 22.2193 72.1765 40.1184 54.0474 46.8725C54.5648 45.9405 54.9929 44.9547 55.3427 43.9321L55.3891 43.9921C60.6951 39.8836 64.8353 34.1557 66.7495 28.2774L64.4231 27.5203C63.688 29.7794 61.506 35.1257 56.2209 40.0707C56.2991 39.3882 56.3469 38.6996 56.3469 38C56.3469 37.6049 56.3126 37.2184 56.2881 36.8307L56.3628 36.8735C67.9041 16.4559 53.7612 0.160229 53.6168 0L51.7883 1.62308C52.302 2.20529 63.6807 15.4162 55.6203 32.9375C55.3194 31.8917 54.9231 30.8875 54.4498 29.9274L54.533 29.9384C55.3781 23.2846 54.2565 16.3055 51.4544 10.7965L49.2735 11.9047C50.3511 14.0243 52.5906 19.3559 52.346 26.598C51.6684 25.748 50.9137 24.9639 50.0979 24.246L50.186 24.2215C43.9101 1.62186 22.3881 0.0978499 22.1716 0.0856186L22.0285 2.52697C22.218 2.53798 40.1172 3.82104 46.8713 21.9502C45.9393 21.4328 44.9535 21.0047 43.9309 20.6549L43.9909 20.6084C39.8824 15.3025 34.1545 11.1622 28.2762 9.24804L27.5191 11.5744C29.7782 12.3095 35.1244 14.4916 40.0695 19.7767C39.3882 19.7008 38.6996 19.6531 38 19.6531C37.6049 19.6531 37.2184 19.6874 36.8307 19.7119L36.8735 19.6372C16.4596 8.0983 0.161452 22.2388 0 22.3832L1.62308 24.2117C2.20407 23.6992 15.4199 12.3205 32.9375 20.3797C31.8917 20.6806 30.8875 21.0769 29.9274 21.5502L29.9384 21.467C23.2846 20.6206 16.3055 21.7435 10.7965 24.5456L11.9047 26.7265C14.0243 25.6501 19.3547 23.4094 26.598 23.654C25.748 24.3316 24.9639 25.0863 24.246 25.9009L24.2215 25.8128C1.62186 32.0899 0.0978499 53.6119 0.0856186 53.8284L2.52697 53.9715C2.53798 53.782 3.82104 35.8828 21.9502 29.1287C21.4328 30.0607 21.0047 31.0465 20.6549 32.0691L20.6084 32.0091C15.3025 36.1176 11.1622 41.8455 9.24804 47.7238L11.5744 48.4809C12.3095 46.2218 14.4916 40.8756 19.7767 35.9305C19.7008 36.6118 19.6531 37.3004 19.6531 38C19.6531 38.3951 19.6874 38.7816 19.7119 39.1693L19.6372 39.1265C8.09585 59.5441 22.2388 75.8398 22.3832 76L24.2117 74.3769C23.698 73.7947 12.3193 60.5838 20.3797 43.0625C20.6806 44.1083 21.0769 45.1125 21.5502 46.0726L21.467 46.0616C20.6219 52.7154 21.7435 59.6945 24.5456 65.2035L26.7265 64.0953C25.6489 61.9757 23.4094 56.6441 23.654 49.402C24.3316 50.252 25.0863 51.036 25.9021 51.754L25.814 51.7785C32.0911 74.3757 53.6132 75.8997 53.8297 75.9107L53.9728 73.4694C53.7832 73.462 35.884 72.179 29.1299 54.0486ZM22.0994 38C22.0994 29.2327 29.2327 22.0994 38 22.0994C46.7673 22.0994 53.9006 29.2327 53.9006 38C53.9006 46.7673 46.7673 53.9006 38 53.9006C29.2327 53.9006 22.0994 46.7673 22.0994 38Z" fill="#463B8A"/>
<path d="M20.8767 7.42188H18.4304V9.86812H20.8767V7.42188Z" fill="#463B8A"/>
<path d="M15.9834 2.52954H13.5371V4.97579H15.9834V2.52954Z" fill="#463B8A"/>
<path d="M6.19869 11.092H3.75244V13.5383H6.19869V11.092Z" fill="#463B8A"/>
<path d="M6.19869 29.4375H3.75244V31.8837H6.19869V29.4375Z" fill="#463B8A"/>
<path d="M11.092 55.1233H8.64575V57.5695H11.092V55.1233Z" fill="#463B8A"/>
<path d="M6.19869 60.0156H3.75244V62.4619H6.19869V60.0156Z" fill="#463B8A"/>
<path d="M26.9921 69.8022H24.5459V72.2485H26.9921V69.8022Z" fill="#463B8A"/>
<path d="M35.5529 73.4705H33.1067V75.9167H35.5529V73.4705Z" fill="#463B8A"/>
<path d="M56.3464 66.1318H53.9001V68.5781H56.3464V66.1318Z" fill="#463B8A"/>
<path d="M63.6853 63.6858H61.239V66.132H63.6853V63.6858Z" fill="#463B8A"/>
<path d="M74.6938 72.2483H72.2476V74.6945H74.6938V72.2483Z" fill="#463B8A"/>
<path d="M73.4699 44.1145H71.0237V46.5607H73.4699V44.1145Z" fill="#463B8A"/>
<path d="M68.5788 15.9824H66.1326V18.4287H68.5788V15.9824Z" fill="#463B8A"/>
<path d="M71.0244 8.646H68.5781V11.0922H71.0244V8.646Z" fill="#463B8A"/>
<path d="M47.7834 3.75171H45.3372V6.19796H47.7834V3.75171Z" fill="#463B8A"/>
<path d="M42.8918 0.083252H40.4456V2.5295H42.8918V0.083252Z" fill="#463B8A"/>
</svg>
