<svg width="76" height="76" viewBox="0 0 76 76" fill="none" xmlns="http://www.w3.org/2000/svg">
<path d="M61.6855 44.9046C55.5357 50.6547 56.5453 53.4842 56.5453 53.4842L60.1251 56.8612C60.1251 56.8612 66.3668 56.7698 69.9465 51.2937C73.5263 45.8175 73.5263 40.5236 73.5263 40.5236C73.5263 40.5236 67.8354 39.1545 61.6855 44.9046Z" stroke="#463B8A" stroke-width="3"/>
<path d="M56.0865 46.1824C57.6469 44.357 60.217 46.1824 60.217 46.1824L56.9126 50.5635H56.0865C54.985 50.5635 53.6082 51.2936 53.6082 51.2936C53.6082 51.2936 54.526 48.0078 56.0865 46.1824Z" stroke="#463B8A" stroke-width="3"/>
<path d="M66.8083 57.8656C65.6511 59.9669 61.3737 60.8698 61.3737 60.8698L63.1713 56.2061L63.9804 56.0401C65.0591 55.8188 66.8076 54.5361 66.8076 54.5361C66.8076 54.5361 67.9656 55.7643 66.8083 57.8656Z" stroke="#463B8A" stroke-width="3"/>
<mask id="path-4-inside-1_1027_27123" fill="white">
<ellipse cx="66.5503" cy="47.2779" rx="2.38652" ry="2.37307"/>
</mask>
<path d="M65.9369 47.2779C65.9369 46.9157 66.2275 46.6509 66.5503 46.6509V52.6509C69.5092 52.6509 71.9369 50.2613 71.9369 47.2779H65.9369ZM66.5503 46.6509C66.8731 46.6509 67.1638 46.9157 67.1638 47.2779H61.1638C61.1638 50.2613 63.5914 52.6509 66.5503 52.6509V46.6509ZM67.1638 47.2779C67.1638 47.6401 66.8731 47.9048 66.5503 47.9048V41.9048C63.5914 41.9048 61.1638 44.2944 61.1638 47.2779H67.1638ZM66.5503 47.9048C66.2275 47.9048 65.9369 47.6401 65.9369 47.2779H71.9369C71.9369 44.2944 69.5092 41.9048 66.5503 41.9048V47.9048Z" fill="#463B8A" mask="url(#path-4-inside-1_1027_27123)"/>
<path d="M54.2508 55.8576C55.2605 53.9409 56.6373 53.8496 56.6373 53.8496L59.2074 56.4052C59.2074 56.4052 58.4731 58.1394 57.188 58.7783C55.903 59.4172 53.4247 59.4172 53.4247 59.4172C53.4247 59.4172 53.2411 57.7743 54.2508 55.8576Z" stroke="#463B8A" stroke-width="3"/>
<line y1="-1.5" x2="8.42502" y2="-1.5" transform="matrix(0.740848 0.671673 -0.67583 0.737057 57.0044 50.9287)" stroke="#463B8A" stroke-width="3"/>
<ellipse cx="61.9609" cy="51.8416" rx="0.550735" ry="0.547631" fill="#463B8A"/>
<path d="M50.481 59.0752C50.3324 58.9196 50.3388 58.6737 50.4952 58.526L52.458 56.6727C52.6144 56.525 52.8617 56.5314 53.0103 56.687V56.687C53.159 56.8426 53.1526 57.0886 52.9961 57.2363L51.0334 59.0895C50.8769 59.2373 50.6296 59.2309 50.481 59.0752V59.0752Z" fill="#463B8A"/>
<path d="M51.0318 55.607C50.8832 55.4514 50.8895 55.2054 51.046 55.0577L53.0087 53.2045C53.1652 53.0567 53.4125 53.0631 53.5611 53.2188V53.2188C53.7097 53.3744 53.7034 53.6203 53.5469 53.768L51.5842 55.6213C51.4277 55.769 51.1804 55.7626 51.0318 55.607V55.607Z" fill="#463B8A"/>
<path d="M50.481 62.5437C50.3324 62.3881 50.3387 62.1422 50.4952 61.9945L52.458 60.1412C52.6144 59.9935 52.8617 59.9999 53.0103 60.1555V60.1555C53.159 60.3112 53.1526 60.5571 52.9961 60.7048L51.0334 62.558C50.8769 62.7058 50.6296 62.6994 50.481 62.5437V62.5437Z" fill="#463B8A"/>
<path d="M54.7034 62.5437C54.5548 62.3881 54.5612 62.1422 54.7176 61.9945L56.6804 60.1412C56.8368 59.9935 57.0841 59.9999 57.2328 60.1555V60.1555C57.3814 60.3112 57.375 60.5571 57.2185 60.7048L55.2558 62.558C55.0993 62.7058 54.852 62.6994 54.7034 62.5437V62.5437Z" fill="#463B8A"/>
<path d="M58.0079 61.4483C57.8592 61.2927 57.8656 61.0467 58.0221 60.899L59.9848 59.0458C60.1413 58.898 60.3886 58.9044 60.5372 59.0601V59.0601C60.6858 59.2157 60.6795 59.4616 60.523 59.6093L58.5602 61.4626C58.4038 61.6103 58.1565 61.6039 58.0079 61.4483V61.4483Z" fill="#463B8A"/>
<line y1="-1.5" x2="7.51369" y2="-1.5" transform="matrix(0.732975 0.680256 -0.684376 0.729129 66.5503 41.6191)" stroke="#463B8A" stroke-width="3"/>
<path d="M55.9136 34.5507C55.9136 48.9301 44.1884 60.6014 29.7068 60.6014C15.2252 60.6014 3.5 48.9301 3.5 34.5507C3.5 20.1713 15.2252 8.5 29.7068 8.5C44.1884 8.5 55.9136 20.1713 55.9136 34.5507Z" stroke="#463B8A" stroke-width="3"/>
<path d="M5.39258 21.9935C5.39258 21.9935 12.1779 32.489 24.2407 32.8638C36.3036 33.2387 19.7172 17.1206 35.5497 18.9948C51.3821 20.869 39.3193 9.62378 39.3193 9.62378" stroke="#463B8A" stroke-width="3"/>
<path d="M36.9227 59.8498C36.9227 59.8498 37.8919 50.6201 31.7112 46.2584C25.5304 41.8968 27.2841 58.1744 19.7694 51.539C12.2548 44.9037 13.7364 56.4276 13.7364 56.4276" stroke="#463B8A" stroke-width="3"/>
<path d="M55.9795 26.5404C55.9795 26.5404 48.5771 26.1448 45.3445 31.1948C42.1119 36.2448 55.0282 34.2106 50.0349 40.4038C45.0416 46.5971 54.1762 44.9675 54.1762 44.9675" stroke="#463B8A" stroke-width="3"/>
</svg>
