<svg width="1373" height="780" viewBox="0 0 1373 780" fill="none" xmlns="http://www.w3.org/2000/svg">
<g opacity="0.3">
<path opacity="0.3" d="M221.038 648.794H316.94V458.718H319.673V453.283H313.72V446.33H266.53V435.772H248.511L245.808 428.862H241.362V416.545H240.372H239.368V428.862H231.112V435.772V443.719V446.33H224.258V453.283H218.321V458.718H221.038V648.794Z" fill="url(#paint0_linear_779_12147)"/>
<path opacity="0.3" d="M242.157 414.83C242.157 413.88 241.359 413.113 240.369 413.113C239.38 413.113 238.582 413.88 238.582 414.83C238.582 415.781 239.38 416.547 240.369 416.547C241.344 416.547 242.157 415.767 242.157 414.83Z" fill="url(#paint1_linear_779_12147)"/>
<path opacity="0.3" d="M1111.15 659.92V404.385L993.066 380.829L1006 659.92H659.5V502.041H653.134V407.564H636.666V382.263H630.787V345.141H598.367V317.868H595.487V345.141H589.136V311H586.256V345.141H565.77V407.564H555.194V502.041H546.111V659.92H453.976V449.751H455.571V447.324H444.227V432.723H445.69V430.381H435.277V421.995H436.207V420.193H431.732V412.26H427.449H426.784V383.951H426.326H425.735H425.145V412.26H423.136V396.481H422.678H422.087H421.496V412.26H416.548V420.193H411.379V421.995H413.004V430.381H402.591V432.723H404.053V447.324H392.724V449.751H394.305V659.92H87.0002V688.584H1341.36V659.92H1111.15Z" fill="url(#paint2_linear_779_12147)"/>
</g>
<mask id="path-4-inside-1_779_12147" fill="white">
<path d="M1311.81 624.567V650.365H1352.01V695.546H35.0002V650.351H80.0044V634.585H110.49V597.634H135.717V614.577H158.389V551.119H174.902V522.995H168.964V517.943H179.407V504.235H224.101V517.943H238.708V504.235H246.211V517.943H253.714V504.235H261.971V517.943H279.237V522.995H276.608V597.634H332.527V470.363H334.757V461.708H338.908V433.044H340.414V461.708H343.797V438.819H345.303V461.708H352.437V470.363H361.447V597.634H388.461V558.697H405.151V537.781H481.689V554.908H494.096V463.637H486.785V461.324H494.096V457.195H503.372V450.412H579.216V457.195H588.491V461.324H595.802V463.637H588.491V610.264H679.533V534.432H706.976V448.468H710.654V401.116H728.348V383.094H737.89V367.954H741.242V342H742.114V367.954H745.467V383.094H755.008V401.116H772.88V448.468H776.425V579.216L784.504 539.342H792.967V504.363H789.068V502.859H875.398V504.363H871.499V573.724H881.543V610.249H906.179L907.73 610.264H1043.69L1045.34 610.249H1083.66V539.086H1124.69V429.226H1161.6V403.741H1163.61V429.226H1167.73V382.144H1169.73V429.226H1174.49V395.284H1176.48V429.226H1182.73V584.012H1201.74V523.009H1204.74V512.366H1207.74V504.973H1229.12V512.366H1232.12V523.009H1243.01V518.44H1248.27V523.009H1250.13V510.805H1257.63V523.009H1259.77L1274.06 624.567H1311.81Z"/>
</mask>
<path d="M1311.81 624.567V650.365H1352.01V695.546H35.0002V650.351H80.0044V634.585H110.49V597.634H135.717V614.577H158.389V551.119H174.902V522.995H168.964V517.943H179.407V504.235H224.101V517.943H238.708V504.235H246.211V517.943H253.714V504.235H261.971V517.943H279.237V522.995H276.608V597.634H332.527V470.363H334.757V461.708H338.908V433.044H340.414V461.708H343.797V438.819H345.303V461.708H352.437V470.363H361.447V597.634H388.461V558.697H405.151V537.781H481.689V554.908H494.096V463.637H486.785V461.324H494.096V457.195H503.372V450.412H579.216V457.195H588.491V461.324H595.802V463.637H588.491V610.264H679.533V534.432H706.976V448.468H710.654V401.116H728.348V383.094H737.89V367.954H741.242V342H742.114V367.954H745.467V383.094H755.008V401.116H772.88V448.468H776.425V579.216L784.504 539.342H792.967V504.363H789.068V502.859H875.398V504.363H871.499V573.724H881.543V610.249H906.179L907.73 610.264H1043.69L1045.34 610.249H1083.66V539.086H1124.69V429.226H1161.6V403.741H1163.61V429.226H1167.73V382.144H1169.73V429.226H1174.49V395.284H1176.48V429.226H1182.73V584.012H1201.74V523.009H1204.74V512.366H1207.74V504.973H1229.12V512.366H1232.12V523.009H1243.01V518.44H1248.27V523.009H1250.13V510.805H1257.63V523.009H1259.77L1274.06 624.567H1311.81Z" fill="url(#paint3_linear_779_12147)" stroke="black" stroke-width="2" mask="url(#path-4-inside-1_779_12147)"/>
<path d="M1162.12 469.781C1162.12 468.831 1161.46 468.064 1160.63 468.064C1159.8 468.064 1159.14 468.831 1159.14 469.781C1159.14 470.732 1159.8 471.498 1160.63 471.498C1161.46 471.498 1162.12 470.732 1162.12 469.781Z" fill="url(#paint4_linear_779_12147)"/>
<path d="M1320.29 671.691L1311 611.951H1291.99V562.37H1294.34V557.886H1285.11V538.574H1283.99V557.886H1277.61V542.064H1276.47V557.886H1238.02V562.37H1240.64V662.964H1196.74V617.896H1171.72V507.171H1174.01V501.736H1169.02V494.783H1163.27V492.172V484.226V477.329H1156.33V464.998H1155.5H1154.68V477.329H1150.93L1148.67 484.226H1133.54V494.783H1093.93V501.736H1088.94V507.171H1091.22V579.214H1058.08V650.008L1021.3 634.357V565.648H1027.24V560.597H1016.8V546.889H972.105V560.597H957.512V546.889H950.009V560.597H942.491V546.889H934.235V560.597H916.983V565.648H919.612V660.878H902.848V659.871H899.806V632.739H902.848V630.554H899.806V603.422H902.848V601.251H899.806V574.106H902.848V571.935H899.806V544.789H902.848V542.618H899.806V515.486H902.848V513.301H899.806V485.219H905.005V483.034H907.649V477.088H858.287V470.461H859.882V468.546H833.001V470.461H834.611V477.088H822.381V483.034H825.025V485.219H830.224V513.301H827.182V515.486H830.224V542.618H827.182V544.789H830.224V571.935H827.182V574.106H830.224V601.251H827.182V603.422H830.224V630.554H827.182V632.739H830.224V659.871H827.182V662.056H830.224V684.221H813.372V598.541H745.563V660.878H734.559V466.673H726.421V471.682L711.385 475.201V471.965H703.247V477.116L688.211 480.65V476.932H680.072V482.565L665.037 486.099V483.034H656.898V488.014L641.862 491.548V488.894H633.724V679.609H622.263V577.937H579.828V640.458H536.316V587.132H530.954V569.636H534.13V567.876H520.054V562.37H518.548V567.876H514.058V539.61H512.92V567.876H507.057V569.636H510.513V587.132H481.8V627.815H453.84L439.248 679.609H409.944V510.492H371.158V504.432H373.373V502.304H343.996V504.432H346.3V510.492V520.24V636.06H328.015V592.297H334.513V588.338H288.505V561.902H279.717V556.467H260.132V561.902H244.18V656.295H191.879V586.281H147.835V641.579H109.611V676.955H82.0498V632.484H45.8189V670.4H13V697.247H45.8189H56.9112H75.0192H82.0498H109.611H147.835H160.685H167.553H191.879H244.18H260.132H279.717H288.505H322.83H328.015H346.3H376.977H392.072H409.944H481.8H498.387H526.391H536.316H580.567H592.457H633.724H637.786H641.862H656.898H665.037H680.072H686.867H688.211H703.247H711.385H724.309H726.421H730.482H734.559H745.563H801.615H809.62H813.372H830.224H859.882H887.044H899.806H919.612H968.782H1020.77H1021.3H1058.08H1078.64H1091.22H1099.17H1160.7H1171.72H1184.91H1196.74H1240.64H1273.29H1279.97H1291.99H1365.05V671.691H1320.29Z" fill="url(#paint5_linear_779_12147)"/>
<path d="M1372.86 697.446C916.713 697.446 462.991 697.446 6.4375 697.446C12.5755 660.375 20.9185 624.66 24.0173 588.483C31.6749 499.135 74.4177 421.955 106.478 341.052C109.041 334.573 114.613 329.241 118.963 323.507C190.802 228.634 279.163 151.856 378.384 86.9934C383.822 83.4486 389.394 79.3528 395.502 77.6996C491.193 51.7695 586.645 24.7968 683.021 1.65183C703.953 -3.38228 728.326 5.0923 750.986 8.2051C784.179 12.7775 817.313 17.8712 850.387 23.3074C859.356 24.7819 868.399 27.3585 876.712 30.9926C925.488 52.261 974.131 73.8421 1022.65 95.6914C1030.95 99.4297 1038.92 104.3 1046.21 109.751C1071.49 128.651 1095.55 149.309 1121.65 166.973C1169.22 199.144 1204.53 241.695 1239.06 287.211C1307.6 377.557 1341.61 479.564 1357.09 589.689C1362.03 624.779 1367.35 659.824 1372.86 697.446ZM684.794 689.388C654.923 629.888 626.066 572.427 595.524 511.616C558.726 572.442 523.999 629.828 487.96 689.388C554.57 689.388 618.244 689.388 684.794 689.388ZM587.792 508.905C521.63 508.905 458.477 508.905 392.835 508.905C422.14 568.287 450.432 625.598 480.422 686.38C517.19 625.583 551.962 568.138 587.792 508.905ZM602.646 507.758C633.023 568.287 661.985 625.986 692.377 686.544C725.898 630.245 757.81 576.657 790.884 521.133C726.419 516.546 666.276 512.286 602.646 507.758ZM699.931 689.403C764.201 689.403 825.179 689.403 889.226 689.403C858.357 634.207 828.785 581.334 797.618 525.601C764.588 581.006 732.945 634.043 699.931 689.403ZM472.972 689.612C443.787 630.379 415.525 573.023 385.595 512.286C355.486 573.917 327.701 630.826 298.977 689.612C357.869 689.612 413.931 689.612 472.972 689.612ZM511.544 344.805C471.944 396.755 434.059 446.485 394.266 498.673C460.622 498.673 523.149 498.673 588.939 498.673C562.957 447.007 537.809 397.038 511.544 344.805ZM896.75 686.425C925.95 630.096 953.214 577.506 981.431 523.084C921.108 523.084 864.629 523.084 805.32 523.084C836.144 578.176 865.538 630.677 896.75 686.425ZM1081.71 689.716C1050.04 633.835 1020.11 581.036 988.895 525.959C959.873 582.019 932.52 634.877 904.139 689.716C964.343 689.716 1021.34 689.716 1081.71 689.716ZM713.339 356.378C676.079 405.095 640.889 451.132 603.614 499.895C668.063 504.422 727.76 508.622 790.988 513.061C764.291 459.22 739.634 409.429 713.339 356.378ZM518.993 341.722C545.348 394.044 570.302 443.596 596.612 495.814C633.485 447.632 668.585 401.774 706.367 352.416C641.441 348.707 581.982 345.312 518.993 341.722ZM386.742 495.322C426.237 443.492 463.691 394.312 503.782 341.707C442.789 345.565 387.01 349.08 329.34 352.714C349.08 401.729 367.374 447.17 386.742 495.322ZM378.98 507.788C327.909 512.42 280.161 516.739 229.924 521.297C251.035 576.479 271.043 628.815 292.407 684.667C321.995 624.198 349.81 567.378 378.98 507.788ZM531.656 334.484C585.915 337.522 645.448 340.843 707.946 344.344C687.997 297.115 669.732 253.864 649.649 206.293C608.143 251.391 569.244 293.66 531.656 334.484ZM995.346 521.059C1026.74 576.434 1056.29 628.592 1087.97 684.488C1105.41 623.617 1121.61 567.066 1138.58 507.863C1090.31 512.301 1044.76 516.501 995.346 521.059ZM1145.13 514.237C1127.69 575.064 1111.52 631.466 1094.88 689.508C1141.72 689.508 1186.12 689.508 1233.63 689.508C1204.28 631.392 1175.78 574.93 1145.13 514.237ZM513.927 331.297C555.076 287.122 594.333 244.987 631.98 204.565C576.753 204.565 517.369 204.565 454.841 204.565C474.82 247.385 493.755 288.015 513.927 331.297ZM506.151 333.739C485.874 290.19 466.924 249.5 446.796 206.263C408.508 252.538 371.978 296.668 332.587 344.269C392.403 340.635 447.407 337.299 506.151 333.739ZM285.673 689.671C265.024 635.503 245.389 583.985 223.98 527.791C197.521 584.328 173.282 636.084 148.193 689.671C194.452 689.671 238.089 689.671 285.673 689.671ZM839.958 248.502C777.118 234.114 719.522 220.919 658.767 207.008C678.611 254.132 696.817 297.383 715.827 342.556C757.035 311.339 796.53 281.417 839.958 248.502ZM322.829 358.031C291.692 411.068 262.76 460.322 231.801 513.061C283.215 508.473 330.382 504.258 380.023 499.82C360.76 452.056 342.554 406.942 322.829 358.031ZM1135.98 499.969C1095.15 452.756 1057.8 409.593 1017.62 363.14C1009.23 415.804 1001.66 463.315 993.722 513.18C1041.72 508.727 1086.54 504.556 1135.98 499.969ZM1235.82 675.939C1237.28 675.91 1238.74 675.865 1240.2 675.835C1250.21 620.609 1260.2 565.398 1270.38 509.293C1230.66 509.293 1192.11 509.293 1151.61 509.293C1180.4 566.276 1208.11 621.1 1235.82 675.939ZM721.637 354.948C748.096 408.372 772.544 457.745 798.169 509.486C823.645 469.347 847.392 431.949 872.525 392.376C821.991 379.85 774.079 367.965 721.637 354.948ZM979.211 512.584C944.588 472.341 912.795 435.375 879.423 396.576C854.529 435.747 830.93 472.892 805.693 512.584C864.63 512.584 919.499 512.584 979.211 512.584ZM1141 493.639C1146 440.141 1150.46 392.168 1155.17 341.752C1110.82 346.95 1068.82 351.88 1023.16 357.227C1062.77 403.1 1099.93 446.113 1141 493.639ZM858.402 247.921C910.188 281.402 958.503 312.65 1010.12 346.012C1003.49 296.832 997.565 252.866 991.323 206.531C946.688 220.442 904.452 233.593 858.402 247.921ZM597.863 92.7126C551.828 126.79 508.028 159.228 464.227 191.667C464.853 192.963 465.479 194.259 466.119 195.554C524.907 195.554 583.695 195.554 644.986 195.554C629.254 161.224 614.058 128.071 597.863 92.7126ZM842.491 241.01C825.731 199.605 810.43 161.835 794.444 122.351C750.391 148.192 708.706 172.648 662.819 199.576C724.527 213.799 781.617 226.965 842.491 241.01ZM723.067 347.158C775.509 360.071 822.84 371.733 873.658 384.259C864.197 338.982 855.601 297.741 846.394 253.625C804.813 285.156 765.751 314.779 723.067 347.158ZM1018.63 349.601C1062.04 344.612 1103.52 339.861 1149.82 334.543C1098.96 292.498 1051.74 253.462 1000.13 210.791C1006.74 260.432 1012.6 304.324 1018.63 349.601ZM1267.4 498.807C1232.39 448.63 1199.2 401.059 1162.61 348.618C1157.62 402.117 1153.15 449.911 1148.59 498.807C1188.32 498.807 1225.63 498.807 1267.4 498.807ZM886.083 392.078C920.021 431.517 951.486 468.066 986.213 508.414C994.511 456.628 1002.06 409.564 1010.07 359.595C967.397 370.78 928.408 380.997 886.083 392.078ZM275.602 243.706C292.288 277.024 307.856 308.092 324.557 341.439C362.279 295.864 397.662 253.134 437.053 205.533C379.844 219.057 328.639 231.165 275.602 243.706ZM977.378 202.435C977.393 200.976 977.393 199.501 977.408 198.042C920.855 173.929 864.317 149.83 803.741 124.004C820.993 166.377 836.189 203.657 851.653 241.636C895.439 227.993 936.409 215.214 977.378 202.435ZM142.949 682.299C169.274 625.956 193.066 575.034 217.365 523.054C180.701 523.054 147.195 523.054 111.395 523.054C121.779 575.436 131.746 625.732 142.949 682.299ZM779.531 121.651C779.069 120.296 778.622 118.926 778.161 117.57C722.024 109.155 665.888 100.755 606.236 91.819C623.116 128.502 638.252 161.433 653.955 195.569C697.577 169.892 738.561 145.779 779.531 121.651ZM882.09 384.855C922.911 374.131 961.869 363.884 1005.3 352.476C954.003 319.277 906.314 288.417 854.826 255.1C864.54 301.271 873.121 342.124 882.09 384.855ZM1012.51 204.952C1011.88 206.352 1011.26 207.752 1010.62 209.167C1056.55 247.072 1102.46 284.977 1152.68 326.411C1142.38 286.109 1133.93 251.138 1124.01 216.599C1122.59 211.655 1114.05 205.652 1108.63 205.474C1076.61 204.416 1044.55 204.952 1012.51 204.952ZM986.481 193.425C968.931 158.454 954.271 128.622 938.807 99.2212C937.094 95.9743 930.36 92.8169 926.71 93.5318C889.584 100.725 852.607 108.723 809.774 117.704C870.44 143.694 925.518 167.301 986.481 193.425ZM1245.83 689.731C1274.89 689.731 1301 689.731 1329.41 689.731C1312.23 634.773 1295.51 581.274 1278.8 527.791C1277.5 528.118 1276.19 528.446 1274.89 528.774C1265.33 581.691 1255.78 634.624 1245.83 689.731ZM315.008 355.529C274.827 366.431 239.906 375.904 203.927 385.674C211.331 425.5 218.348 463.166 226.379 506.299C256.711 454.707 284.392 407.598 315.008 355.529ZM409.789 119.521C423.719 145.526 436.189 168.805 449.121 192.918C493.651 159.958 536.066 128.547 578.496 97.1509C577.93 96.1233 577.349 95.0956 576.783 94.0679C522.524 102.334 468.265 110.615 409.789 119.521ZM136.379 689.701C125.98 637.662 116.132 588.379 106.27 539.095C105.123 539.065 103.961 539.035 102.814 539.021C85.2188 588.721 67.6241 638.422 49.4633 689.701C79.0957 689.701 106.404 689.701 136.379 689.701ZM441.776 196.076C428.204 170.86 415.704 147.626 402.43 122.962C362.86 159.779 325.6 194.452 288.355 229.11C288.906 230.093 289.457 231.076 290.009 232.059C340.007 220.218 390.005 208.363 441.776 196.076ZM219.302 512.242C211.972 472.967 204.955 435.315 197.059 393.031C168.321 434.66 142.472 472.118 114.777 512.242C151.694 512.242 184.664 512.242 219.302 512.242ZM269.807 249.947C248.473 292.915 228.777 332.577 207.011 376.455C246.297 365.716 281.174 356.169 317.704 346.19C301.406 313.454 286.552 283.607 269.807 249.947ZM1102.05 196.925C1102.31 195.405 1102.58 193.871 1102.85 192.352C1053.03 161.939 1003.23 131.541 953.407 101.128C964.79 132.285 978.6 160.405 993.111 188.167C995.122 192.01 1000.55 196.463 1004.46 196.537C1036.99 197.222 1069.52 196.925 1102.05 196.925ZM1169.12 344.031C1203.56 393.329 1234.83 438.085 1266.1 482.856C1266.58 445.77 1263.74 410.174 1260.25 374.652C1259.89 370.959 1256.33 365.344 1253.22 364.525C1226.97 357.569 1200.49 351.537 1169.12 344.031ZM734.315 41.7013C696.489 55.5525 659.527 69.091 622.579 82.6295C622.788 83.8359 622.997 85.0423 623.205 86.2487C676.213 94.202 729.22 102.155 787.144 110.853C767.33 84.9231 751.106 63.6697 734.315 41.7013ZM751.642 45.1269C751.046 46.4822 750.45 47.8524 749.839 49.2078C763.814 67.3335 777.446 85.7274 792.031 103.347C795.1 107.055 802.147 110.406 806.557 109.587C841.463 103.049 876.175 95.4679 910.948 88.2147C910.948 86.8742 910.948 85.5189 910.948 84.1784C857.851 71.1761 804.739 58.1441 751.642 45.1269ZM1251.86 355.38C1212.01 310.803 1175.69 270.172 1135.39 225.089C1144.61 262.011 1152.03 293.049 1160.39 323.85C1161.65 328.511 1166.63 334.424 1171.02 335.616C1196.05 342.482 1221.42 348.097 1251.86 355.38ZM47.4818 659.794C48.6737 660.226 49.8804 660.658 51.0723 661.09C67.4751 614.726 83.8631 568.361 100.758 520.582C81.4347 516.248 64.9722 512.539 47.4818 508.607C47.4818 560.08 47.4818 609.945 47.4818 659.794ZM1328.45 660.003C1330.39 659.899 1332.33 659.795 1334.26 659.69C1334.26 611.673 1334.26 563.64 1334.26 513.85C1317.88 512.078 1300.65 510.216 1281.23 508.116C1297.49 560.423 1312.97 610.213 1328.45 660.003ZM591.442 83.7614C575.784 66.5591 563.24 52.7674 550.756 39.0353C510.367 61.5994 472.213 82.9274 434.059 104.255C434.595 105.357 435.131 106.46 435.668 107.577C486.023 99.8765 536.379 92.1764 591.442 83.7614ZM140.431 357.748C131.731 404.112 123.567 447.558 115.417 491.003C116.624 491.345 117.831 491.688 119.038 492.045C143.456 456.628 167.889 421.211 193.305 384.363C175.636 375.457 159.456 367.31 140.431 357.748ZM103.022 512.748C111.425 468.126 119.514 425.113 127.619 382.099C126.412 381.712 125.19 381.325 123.984 380.923C99.5657 420.123 75.1477 459.309 49.4633 500.55C68.3541 504.869 84.7123 508.578 103.022 512.748ZM197.461 377.408C216.516 339.056 234.707 302.462 252.897 265.868C251.72 265.019 250.543 264.155 249.366 263.306C215.101 292.022 180.82 320.737 144.796 350.927C163.389 360.28 179.077 368.159 197.461 377.408ZM372.887 139.539C372.306 138.511 371.74 137.483 371.159 136.456C328.163 157.069 285.152 177.682 240.442 199.129C251.542 212.459 260.54 223.257 270.298 234.978C305.666 202.078 339.277 170.801 372.887 139.539ZM702.94 44.7098C702.448 43.1758 701.972 41.6268 701.48 40.0928C656.219 40.0928 610.974 40.0928 562.659 40.0928C574.786 53.4525 584.798 65.3229 595.852 76.0911C598.579 78.7422 605.372 79.6507 609.246 78.3252C640.621 67.5421 671.743 56.0142 702.94 44.7098ZM160.588 322.405C161.363 323.403 162.123 324.401 162.898 325.399C196.314 297.354 229.716 269.323 264.116 240.459C254.074 228.261 245.076 217.329 234.513 204.506C209.022 245.136 184.813 283.77 160.588 322.405ZM1333.89 505.539C1312.68 464.954 1293.22 427.719 1273.78 390.499C1272.48 390.887 1271.2 391.274 1269.9 391.661C1273.08 427.585 1276.25 463.524 1279.44 499.597C1297.94 501.622 1314.02 503.365 1333.89 505.539ZM774.034 42.446C819.026 53.4227 864.004 64.3846 910.024 75.5996C875.043 19.9414 823.377 36.0714 774.034 42.446ZM1086.45 173.005C1054.55 130.26 1025.92 91.8041 967.278 100.115C1006.09 123.841 1044.11 147.105 1086.45 173.005ZM1227.98 314.779C1229.11 314.02 1230.24 313.245 1231.39 312.486C1219.83 291.53 1206.29 271.409 1197.25 249.425C1186.71 223.853 1166.76 216.808 1139.78 212.325C1170.56 248.07 1199.27 281.417 1227.98 314.779ZM285.316 164.977C286.046 165.886 286.761 166.794 287.491 167.703C324.334 149.979 361.192 132.241 398.646 114.219C394.638 104.911 391.644 97.985 388.068 89.704C352.923 115.47 319.119 140.224 285.316 164.977ZM405.707 110.689C438.766 92.2658 470.201 74.7507 501.651 57.2206C501.145 56.1036 500.653 54.9717 500.147 53.8546C465.985 64.2803 431.839 74.7209 396.083 85.638C399.599 94.7679 402.311 101.842 405.707 110.689ZM1363.75 689.433C1357.86 650.054 1352.19 612.09 1346.52 574.125C1344.83 574.304 1343.11 574.483 1341.41 574.661C1341.41 612.566 1341.41 650.456 1341.41 689.433C1348.13 689.433 1354.93 689.433 1363.75 689.433ZM601.171 27.1054C601.32 28.4458 601.469 29.8011 601.603 31.1416C640.174 31.1416 678.745 31.1416 717.317 31.1416C717.823 29.533 718.33 27.9394 718.836 26.3309C706.367 20.5819 693.39 9.1881 681.502 10.2307C654.447 12.6137 627.913 21.1031 601.171 27.1054ZM37.9023 689.299C37.9023 649.354 37.9023 610.079 37.9023 570.789C37.1276 570.729 36.3529 570.67 35.5633 570.595C28.9933 609.692 22.4083 648.803 15.5999 689.284C23.5853 689.299 30.3937 689.299 37.9023 689.299ZM72.9874 441.526C74.0005 441.958 75.0285 442.404 76.0416 442.836C94.2471 413.57 112.453 384.304 131.716 353.339C125.131 349.944 119.931 347.278 113.689 344.061C99.5657 377.899 86.2766 409.713 72.9874 441.526ZM188.895 262.145C187.837 261.102 186.794 260.059 185.736 259.002C163.687 284.336 141.638 309.656 118.531 336.197C125.921 340.143 130.792 342.765 136.513 345.818C154.465 317.162 171.688 289.653 188.895 262.145ZM806.884 30.1288C807.048 28.282 807.212 26.4351 807.376 24.5883C776.03 20.0159 744.685 15.4435 710.21 10.4243C739.917 46.9737 775.554 24.8266 806.884 30.1288ZM988.15 89.004C956.64 75.0485 930.658 63.5356 899.58 49.7737C924.952 76.4932 949.981 90.5232 988.15 89.004ZM1087.15 150.873C1107.28 172.797 1120.65 203.195 1158.87 206.099C1133.33 186.424 1110.24 168.656 1087.15 150.873ZM1305.97 434.958C1297.52 411.917 1299.01 383.902 1278.71 366.803C1276.55 367.891 1274.39 368.963 1272.21 370.05C1283.48 391.691 1294.72 413.317 1305.97 434.958ZM1272.51 359.625C1274.13 358.433 1275.77 357.242 1277.4 356.05C1264.5 338.043 1251.61 320.022 1238.71 302.015C1249.55 321.586 1252.17 346.846 1272.51 359.625Z" fill="#D2D2D2" fill-opacity="0.2"/>
<g opacity="0.1">
<path opacity="0.1" d="M214.257 734.516C214.257 734.926 215.054 735.261 216.044 735.261C217.034 735.261 217.831 734.926 217.831 734.516C217.831 734.107 217.034 733.771 216.044 733.771C215.054 733.771 214.257 734.107 214.257 734.516Z" fill="#6F5AED"/>
<path opacity="0.1" d="M1352.7 597.463H1334.68H1279.63H1267.62H1260.93H1228.28H1184.36H1172.53H1159.36H1148.34H1086.81H1078.86H1066.28H1045.72H1008.94H1008.39H956.404H907.235H887.443H874.682H847.52H817.877H801.024H797.272H789.267H733.23H722.226H718.149H714.073H711.961H699.037H690.899H675.863H674.519H667.71H652.674H644.536H629.5H625.423H621.347H580.08H568.19H523.939H514.028H486.024H469.452H397.611H379.739H364.629H333.967H315.682H310.497H276.172H267.399H247.799H231.862H179.561H155.235H148.352H135.502H97.2777H69.7021H62.6716H44.5636H33.4713H17.6674H0.652344V609.107H17.6674V617.065H33.4713V625.556H62.6716V628.263H93.1864V639.932H118.414V632.583H135.488V645.581H141.086V660.093H157.598V672.284H151.661V674.469H162.103V680.415H196.709V715.486H193.977V717.844H199.929V720.861H206.782V721.991V725.442V728.434H215.039V733.784H216.028H217.018V728.434H221.479L224.167 725.442H242.201V720.861H289.391V717.844H295.343V715.486H292.611V644.687H315.209V695.114H317.439V698.863H321.59V711.29H323.096V698.863H326.479V708.794H327.985V698.863H335.119V695.114H344.129V681.992H361.04V681.073H358.84V678.441H370.006V719.371H368.411V720.426H379.754V726.758H378.292V727.776H388.705V731.413H387.08V732.195H392.249V735.634H397.197V742.474H397.788H398.379H398.837V735.634H400.831V747.912H401.422H402.012H402.47V735.634H403.135H407.418V732.195H411.894V731.413H410.963V727.776H421.376V726.758H419.914V720.426H431.257V719.371H429.662V665.866H464.371V658.442H476.778V698.019H469.467V699.024H476.778V700.812H486.054V703.754H530.866V737.67H541.456V764.733H561.942V779.543H564.822V764.733H571.173V776.564H574.053V764.733H606.459V748.644H612.337V737.67H628.806V696.703H635.186V687.231L644.551 688.187V690.347H652.689V689.018L667.725 690.545V692.991H675.863V691.377L689.643 692.78V704.598H693.321V725.131H711.016V732.952H720.557V739.52H723.91V750.779H724.781V739.52H728.134V732.952H737.675V725.131H755.503V704.598H759.048V647.902L767.127 665.195H775.59V680.366H771.691V681.023H817.891V689.403H812.692V690.347H810.048V692.929H822.278V695.796H820.668V696.628H847.549V695.796H845.94V692.929H881.343C882.525 695.325 884.327 697.659 886.764 699.881L880.871 701.01C879.851 700.104 877.651 699.471 875.081 699.471C871.551 699.471 868.7 700.663 868.7 702.128C868.7 703.593 871.566 704.784 875.081 704.784C878.611 704.784 881.461 703.593 881.461 702.128C881.461 701.83 881.343 701.544 881.122 701.284L887.059 700.141C890.885 703.555 896.158 706.696 902.745 709.44C903.262 709.651 903.794 709.874 904.325 710.085L899.673 712.158C898.55 711.749 897.088 711.501 895.478 711.501C891.948 711.501 889.098 712.692 889.098 714.157C889.098 715.622 891.963 716.814 895.478 716.814C899.008 716.814 901.859 715.622 901.859 714.157C901.859 713.462 901.224 712.829 900.175 712.357L904.842 710.284C912.759 713.35 921.946 715.672 931.886 717.149L929.316 720.191C928.755 720.129 928.164 720.091 927.559 720.091C924.029 720.091 921.178 721.283 921.178 722.748C921.178 724.213 924.043 725.405 927.559 725.405C931.089 725.405 933.939 724.213 933.939 722.748C933.939 721.631 932.3 720.687 929.981 720.29L932.551 717.248C940.748 718.428 949.448 719.048 958.384 719.048C959.122 719.048 959.861 719.048 960.584 719.036L960.88 722.785C957.778 722.971 955.4 724.076 955.4 725.417C955.4 726.882 958.266 728.074 961.781 728.074C965.311 728.074 968.161 726.882 968.161 725.417C968.161 723.952 965.296 722.76 961.781 722.76C961.707 722.76 961.648 722.76 961.574 722.76L961.279 719.036C964.912 718.986 968.486 718.825 972.002 718.564L968.723 749.265L1086.81 739.048V685.244H1107.31V712.941H1144.22V723.989H1146.23V712.941H1150.35V733.362H1152.36V712.941H1157.11V727.664H1159.12V712.941H1165.37V645.829H1184.38V672.284H1187.38V676.902H1190.38V680.105H1211.76V676.902H1214.76V672.284H1225.65V674.258H1230.9V672.284H1232.77V677.572H1240.27V672.284H1242.41L1247.08 657.896H1264.11V664.761H1265.23V657.896H1271.61V666.275H1272.73V657.896H1281.96V655.947H1279.62V634.445H1298.63L1300.86 628.238H1317V617.053H1334.65V608.536H1352.67V597.463H1352.7ZM903.882 686.858L887.458 687.082V677.225H890.486V676.281H887.458V675.549L907.102 678.565C905.005 680.974 903.868 683.568 903.868 686.275C903.868 686.461 903.868 686.66 903.882 686.858ZM956.257 663.569C949.832 663.668 943.673 664.239 938.001 665.195L930.158 657.238V656.716H937.661V662.663H945.164V656.716H955.725L956.257 663.569ZM975.517 685.877L962.652 686.051C962.608 685.915 962.534 685.778 962.416 685.642L975.812 683.059L975.517 685.877ZM921.902 656.716V657.213C921.414 657.312 920.927 657.411 920.454 657.523L919.406 656.716H921.902ZM921.902 658.206V658.628L921.473 658.293C921.606 658.268 921.754 658.243 921.902 658.206ZM921.902 659.87V662.65H925.52L930.764 666.685C926.362 667.765 922.359 669.093 918.859 670.633L902.76 664.351C903.247 664.14 903.749 663.929 904.252 663.718C909.096 661.707 914.458 659.994 920.233 658.603L921.902 659.87ZM931.281 667.07L953.539 684.164L919.642 670.931C923.054 669.441 926.983 668.137 931.281 667.07ZM927.13 662.65H930.143V658.007L937.336 665.307C935.505 665.63 933.718 665.99 931.99 666.387L927.13 662.65ZM959.757 656.716V662.663H977.983L976.181 664.798C970.598 663.991 964.616 663.557 958.398 663.557C957.926 663.557 957.453 663.557 956.98 663.569L956.449 656.729H959.757V656.716ZM977.895 663.643L977.747 665.046C977.437 664.997 977.156 664.935 976.846 664.897L977.895 663.643ZM976.359 678.056L964.085 683.506L976.817 673.736L976.359 678.056ZM976.3 678.516L975.842 682.749L962.106 685.393C962.032 685.331 961.943 685.282 961.855 685.232L962.741 684.549L976.3 678.516ZM962.268 687.02L975.177 688.993L974.808 692.469L961.736 687.367C961.958 687.268 962.135 687.144 962.268 687.02ZM962.519 686.734C962.608 686.61 962.652 686.486 962.667 686.349L975.487 686.175L975.221 688.683L962.519 686.734ZM907.265 647.393L890.412 634.445H907.265V647.393ZM907.265 648.635V654.531H904.636V656.716H917.781L919.214 657.821C913.261 659.249 907.722 661.012 902.745 663.085C902.228 663.296 901.711 663.519 901.209 663.743L896.32 661.831C897.251 661.372 897.812 660.776 897.812 660.118C897.812 658.653 894.946 657.461 891.431 657.461C889.925 657.461 888.566 657.685 887.473 658.045V651.8H890.501V650.857H887.473V639.088H890.501V638.145H887.473V634.445H888.802L907.265 648.635ZM887.458 664.512H890.486V663.569H887.458V662.203C888.551 662.563 889.91 662.787 891.416 662.787C893.13 662.787 894.681 662.501 895.833 662.054L900.721 663.966C895.286 666.399 890.855 669.118 887.458 672.036V664.512ZM887.458 674.22C890.914 670.695 895.877 667.417 902.272 664.562L918.386 670.844C913.645 672.979 909.864 675.499 907.353 678.268L887.473 675.214V674.22H887.458ZM919.154 671.154L954.602 684.996L954.898 685.22C954.735 685.306 954.603 685.406 954.484 685.505L908.343 678.429C910.809 675.71 914.502 673.252 919.154 671.154ZM932.507 666.784C934.205 666.387 935.948 666.039 937.75 665.717L956.434 684.661C956.271 684.698 956.109 684.735 955.961 684.773L932.507 666.784ZM938.4 665.605C943.968 664.674 949.979 664.115 956.286 664.003L957.881 684.475C957.601 684.487 957.335 684.512 957.084 684.549L938.4 665.605ZM956.995 664.003C957.453 664.003 957.911 663.991 958.384 663.991C964.484 663.991 970.347 664.426 975.812 665.208L959.462 684.524C959.181 684.5 958.886 684.475 958.59 684.462L956.995 664.003ZM976.492 665.307C976.905 665.369 977.289 665.444 977.703 665.518L976.964 672.383L960.821 684.785C960.614 684.723 960.392 684.673 960.156 684.624L976.492 665.307ZM961.264 687.591L974.778 692.867L973.848 701.557L960.348 687.851C960.673 687.789 960.983 687.69 961.264 687.591ZM908.092 678.702L954.233 685.778C954.145 685.902 954.1 686.026 954.086 686.163L904.931 686.833C904.916 686.647 904.916 686.449 904.916 686.262C904.931 683.606 906.053 681.073 908.092 678.702ZM954.115 686.473C954.159 686.61 954.233 686.746 954.351 686.883L909.702 695.474C906.91 692.916 905.241 690.111 904.975 687.144L954.115 686.473ZM954.647 687.144C954.809 687.255 954.986 687.367 955.193 687.467L921.592 702.401C916.806 700.501 912.848 698.242 910.012 695.722L954.647 687.144ZM955.71 687.665C955.991 687.752 956.286 687.839 956.626 687.901L940.276 707.218C933.481 706.2 927.307 704.611 922.108 702.612L955.71 687.665ZM957.291 687.988C957.571 688.013 957.867 688.038 958.162 688.038L959.757 708.509C959.299 708.509 958.841 708.521 958.369 708.521C952.269 708.521 946.405 708.087 940.94 707.305L957.291 687.988ZM958.871 688.038C959.152 688.025 959.417 688 959.669 687.963L973.759 702.252L973.183 707.64C969.121 708.124 964.868 708.434 960.466 708.509L958.871 688.038ZM883.5 692.929H895.301V690.347H892.657V689.403H887.458V687.38L903.912 687.156C904.192 690.173 905.891 693.053 908.742 695.66L888.684 699.521C886.38 697.41 884.667 695.201 883.5 692.929ZM904.237 708.819C897.827 706.15 892.701 703.096 888.979 699.769L909.037 695.908C911.947 698.478 915.979 700.787 920.868 702.724L905.773 709.427C905.256 709.229 904.754 709.03 904.237 708.819ZM906.29 709.638L921.385 702.922C926.702 704.971 932.979 706.585 939.921 707.627L932.58 716.305C922.921 714.877 913.985 712.618 906.29 709.638ZM958.384 718.155C949.699 718.155 941.236 717.559 933.26 716.404L940.601 707.727C946.184 708.534 952.165 708.968 958.384 708.968C958.856 708.968 959.329 708.968 959.802 708.956L960.51 718.13C959.801 718.155 959.092 718.155 958.384 718.155ZM961.219 718.142L960.496 708.956C964.868 708.881 969.077 708.583 973.124 708.111L972.105 717.646C968.545 717.906 964.912 718.08 961.219 718.142Z" fill="#6F5AED"/>
</g>
<defs>
<linearGradient id="paint0_linear_779_12147" x1="268.993" y1="648.788" x2="268.993" y2="416.539" gradientUnits="userSpaceOnUse">
<stop stop-color="#403E40"/>
<stop offset="0.1275" stop-color="#4E4D4E"/>
<stop offset="0.3124" stop-color="#5A5A5A"/>
<stop offset="0.5479" stop-color="#626262"/>
<stop offset="1" stop-color="#646464"/>
</linearGradient>
<linearGradient id="paint1_linear_779_12147" x1="240.364" y1="416.542" x2="240.364" y2="413.112" gradientUnits="userSpaceOnUse">
<stop stop-color="#403E40"/>
<stop offset="0.1275" stop-color="#4E4D4E"/>
<stop offset="0.3124" stop-color="#5A5A5A"/>
<stop offset="0.5479" stop-color="#626262"/>
<stop offset="1" stop-color="#646464"/>
</linearGradient>
<linearGradient id="paint2_linear_779_12147" x1="714.178" y1="688.579" x2="714.178" y2="310.997" gradientUnits="userSpaceOnUse">
<stop stop-color="#FF7D00"/>
<stop offset="0.1275" stop-color="#FF7D00"/>
<stop offset="0.3124" stop-color="#FF7D00"/>
<stop offset="0.5479" stop-color="#FF7D00"/>
<stop offset="0.758392" stop-color="#FF7D00"/>
<stop offset="0.931928" stop-color="#463B8A"/>
</linearGradient>
<linearGradient id="paint3_linear_779_12147" x1="693.506" y1="342" x2="693.506" y2="695.546" gradientUnits="userSpaceOnUse">
<stop stop-color="#1A143D"/>
<stop offset="1" stop-color="#FF7D00"/>
</linearGradient>
<linearGradient id="paint4_linear_779_12147" x1="1160.63" y1="468.068" x2="1160.63" y2="471.498" gradientUnits="userSpaceOnUse">
<stop stop-color="#403E40"/>
<stop offset="1" stop-color="#161F21"/>
</linearGradient>
<linearGradient id="paint5_linear_779_12147" x1="689.023" y1="464.997" x2="689.023" y2="697.246" gradientUnits="userSpaceOnUse">
<stop stop-color="#463B8A"/>
<stop offset="1" stop-color="#161F21"/>
</linearGradient>
</defs>
</svg>
